<?xml version="1.0" encoding="UTF-8"?>
<!DOCTYPE svg PUBLIC "-//W3C//DTD SVG 1.1//EN" "http://www.w3.org/Graphics/SVG/1.1/DTD/svg11.dtd">
<!-- Creator: CorelDRAW 2018 (64-Bit) -->
<svg xmlns="http://www.w3.org/2000/svg" xml:space="preserve" width="200px" height="200px" version="1.1" style="shape-rendering:geometricPrecision; text-rendering:geometricPrecision; image-rendering:optimizeQuality; fill-rule:evenodd; clip-rule:evenodd"
viewBox="0 0 200 200"
 xmlns:xlink="http://www.w3.org/1999/xlink">
 <defs>
  <style type="text/css">
   <![CDATA[
    .fil0 {fill:#00567B;fill-rule:nonzero}
   ]]>
  </style>
 </defs>
 <g id="Слой_x0020_1">
  <metadata id="CorelCorpID_0Corel-Layer"/>
  <path class="fil0" d="M200 100c0,-55.13 -44.87,-100 -100,-100 -55.13,0 -100,44.87 -100,100 0,29.12 12.52,55.38 32.46,73.67l-0.09 0.09 3.23 2.73c0.21,0.18 0.45,0.32 0.66,0.5 1.72,1.42 3.51,2.77 5.32,4.08 0.59,0.43 1.17,0.85 1.78,1.28 1.95,1.33 3.94,2.61 5.98,3.8 0.45,0.27 0.89,0.52 1.33,0.78 2.23,1.26 4.52,2.47 6.84,3.55 0.18,0.09 0.34,0.16 0.52,0.25 7.6,3.52 15.71,6.11 24.18,7.66 0.23,0.03 0.44,0.07 0.67,0.1 2.63,0.46 5.29,0.82 7.99,1.06 0.32,0.04 0.66,0.06 0.98,0.09 2.68,0.22 5.4,0.36 8.15,0.36 2.72,0 5.41,-0.14 8.08,-0.36 0.34,-0.03 0.68,-0.05 1.01,-0.07 2.68,-0.24 5.31,-0.6 7.92,-1.04 0.23,-0.04 0.46,-0.09 0.69,-0.13 8.35,-1.49 16.34,-4.03 23.83,-7.47 0.28,-0.12 0.57,-0.25 0.83,-0.38 2.26,-1.06 4.44,-2.2 6.59,-3.4 0.54,-0.31 1.07,-0.61 1.6,-0.93 1.96,-1.15 3.89,-2.34 5.76,-3.64 0.67,-0.44 1.33,-0.94 1.98,-1.42 1.6,-1.14 3.18,-2.32 4.69,-3.57 0.34,-0.26 0.71,-0.51 1.05,-0.78l3.32 -2.79 -0.11 -0.08c20.12,-18.29 32.76,-44.66 32.76,-73.94zm-192.72 0c0,-51.14 41.58,-92.72 92.72,-92.72 51.14,0 92.72,41.58 92.72,92.72 0,27.56 -12.09,52.33 -31.23,69.32 -1.07,-0.73 -2.13,-1.41 -3.25,-1.96l-30.79 -15.39c-2.75,-1.38 -4.47,-4.15 -4.47,-7.24l0 -10.76c0.71,-0.88 1.47,-1.87 2.23,-2.97 4,-5.63 7.19,-11.9 9.52,-18.62 4.62,-2.19 7.58,-6.79 7.58,-11.97l0 -12.89c0,-3.15 -1.15,-6.2 -3.21,-8.62l0 -16.97c0.18,-1.88 0.85,-12.53 -6.85,-21.32 -6.7,-7.64 -17.55,-11.53 -32.25,-11.53 -14.7,0 -25.55,3.89 -32.25,11.53 -7.7,8.79 -7.03,19.44 -6.85,21.32l0 16.97c-2.06,2.4 -3.21,5.47 -3.21,8.62l0 12.89c0,4.01 1.79,7.74 4.87,10.26 2.94,11.54 9,20.28 11.25,23.23l0 10.52c0,2.97 -1.63,5.7 -4.22,7.12l-28.77 15.68c-0.91,0.5 -1.83,1.08 -2.73,1.74 -18.89,-16.99 -30.81,-41.6 -30.81,-68.96z"/>
 </g>
</svg>
