<?xml version="1.0" encoding="UTF-8"?>
<!DOCTYPE svg PUBLIC "-//W3C//DTD SVG 1.1//EN" "http://www.w3.org/Graphics/SVG/1.1/DTD/svg11.dtd">
<!-- Creator: CorelDRAW 2018 (64-Bit) -->
<svg xmlns="http://www.w3.org/2000/svg" xml:space="preserve" width="500px" height="394px" version="1.1" style="shape-rendering:geometricPrecision; text-rendering:geometricPrecision; image-rendering:optimizeQuality; fill-rule:evenodd; clip-rule:evenodd"
viewBox="0 0 500 394"
 xmlns:xlink="http://www.w3.org/1999/xlink">
 <defs>
  <style type="text/css">
   <![CDATA[
    .fil0 {fill:#9D9E9E;fill-rule:nonzero}
   ]]>
  </style>
 </defs>
 <g id="Слой_x0020_1">
  <metadata id="CorelCorpID_0Corel-Layer"/>
  <g id="_1252187520">
   <path class="fil0" d="M423.08 76.81l-19.23 0c-7.97,0 -14.43,-6.46 -14.43,-14.43 0,-7.96 6.46,-14.42 14.43,-14.42l19.23 0c7.96,0 14.42,6.46 14.42,14.42 0,7.97 -6.46,14.43 -14.42,14.43zm-57.7 0l-19.22 0c-7.97,0 -14.43,-6.46 -14.43,-14.43 0,-7.96 6.46,-14.42 14.43,-14.42l19.22 0c7.97,0 14.43,6.46 14.43,14.42 0,7.97 -6.46,14.43 -14.43,14.43zm120.2 -76.93l-471.16 0c-7.96,0 -14.42,6.46 -14.42,14.43l0 81.73 500 0 0 -81.73c0,-7.97 -6.46,-14.43 -14.42,-14.43z"/>
   <path class="fil0" d="M250 215.27c16.44,0 29.81,13.37 29.81,29.81 0,16.43 -13.37,29.81 -29.81,29.81 -16.44,0 -29.81,-13.38 -29.81,-29.81 0,-16.44 13.37,-29.81 29.81,-29.81zm0 92.31c34.46,0 62.5,-28.04 62.5,-62.5 0,-34.47 -28.04,-62.5 -62.5,-62.5 -34.46,0 -62.5,28.03 -62.5,62.5 0,34.46 28.04,62.5 62.5,62.5z"/>
   <path class="fil0" d="M250 153.73c50.37,0 91.35,40.98 91.35,91.35 0,50.37 -40.98,91.34 -91.35,91.34 -50.37,0 -91.35,-40.97 -91.35,-91.34 0,-50.37 40.98,-91.35 91.35,-91.35zm-206.73 33.65c0,55.23 21.5,107.14 60.55,146.19 39.05,39.04 90.96,60.55 146.18,60.55 55.22,0 107.14,-21.51 146.18,-60.55 39.05,-39.05 60.55,-90.96 60.55,-146.19l0 -62.5 -413.46 0 0 62.5z"/>
  </g>
 </g>
</svg>
