<?xml version="1.0" encoding="UTF-8"?>
<!DOCTYPE svg PUBLIC "-//W3C//DTD SVG 1.1//EN" "http://www.w3.org/Graphics/SVG/1.1/DTD/svg11.dtd">
<!-- Creator: CorelDRAW 2018 (64-Bit) -->
<svg xmlns="http://www.w3.org/2000/svg" xml:space="preserve" width="500px" height="434px" version="1.1" style="shape-rendering:geometricPrecision; text-rendering:geometricPrecision; image-rendering:optimizeQuality; fill-rule:evenodd; clip-rule:evenodd"
viewBox="0 0 500 434"
 xmlns:xlink="http://www.w3.org/1999/xlink">
 <defs>
  <style type="text/css">
   <![CDATA[
    .fil0 {fill:#9D9E9E;fill-rule:nonzero}
   ]]>
  </style>
 </defs>
 <g id="Слой_x0020_1">
  <metadata id="CorelCorpID_0Corel-Layer"/>
  <g id="_1798260960">
   <polygon class="fil0" points="0,434.05 131.81,434.05 131.81,59.05 0,59.05 "/>
   <path class="fil0" d="M468.19 115.86l0 -115.91 -199.92 0 -75.09 73.94 0 41.97 -29.54 0 0 318.19 336.36 0 0 -318.19 -31.81 0zm-229.55 -22.21l0 -0.86 48.39 -47.38 135.7 0 0 175 -184.09 0 0 -126.76zm27.28 301.75l-52.29 0 0 -47.73 52.29 0 0 47.73zm0 -86.35l-52.29 0 0 -47.73 52.29 0 0 47.73zm90.9 86.35l-52.28 0 0 -47.73 52.28 0 0 47.73zm0 -86.35l-52.28 0 0 -47.73 52.28 0 0 47.73zm90.91 86.35l-52.28 0 0 -47.73 52.28 0 0 47.73zm0 -86.35l-52.28 0 0 -47.73 52.28 0 0 47.73z"/>
  </g>
 </g>
</svg>
