<?xml version="1.0" encoding="UTF-8"?>
<!DOCTYPE svg PUBLIC "-//W3C//DTD SVG 1.1//EN" "http://www.w3.org/Graphics/SVG/1.1/DTD/svg11.dtd">
<!-- Creator: CorelDRAW 2018 (64-Bit) -->
<svg xmlns="http://www.w3.org/2000/svg" xml:space="preserve" width="500px" height="500px" version="1.1" style="shape-rendering:geometricPrecision; text-rendering:geometricPrecision; image-rendering:optimizeQuality; fill-rule:evenodd; clip-rule:evenodd"
viewBox="0 0 500 500"
 xmlns:xlink="http://www.w3.org/1999/xlink">
 <defs>
  <style type="text/css">
   <![CDATA[
    .fil0 {fill:#9D9E9E;fill-rule:nonzero}
   ]]>
  </style>
 </defs>
 <g id="Слой_x0020_1">
  <metadata id="CorelCorpID_0Corel-Layer"/>
  <g id="_1250888736">
   <path class="fil0" d="M117.19 0l0 59.57 58.59 0 0 -44.92c0,-8.1 -6.55,-14.65 -14.65,-14.65l-43.94 0z"/>
   <path class="fil0" d="M29.3 14.65l0 44.92 58.59 0 0 -59.57 -43.94 0c-8.1,0 -14.65,6.55 -14.65,14.65z"/>
   <path class="fil0" d="M485.35 118.16l-117.19 0c-8.09,0 -14.64,6.56 -14.64,14.65l0 58.6c0,23.83 11.61,44.83 29.29,58.22l0 29.67c0,19.07 12.29,35.18 29.3,41.25l0 2.69c0,36.2 -13.69,69.91 -35.52,95.5 3.7,-11.39 6.22,-24.29 6.22,-36.9 0,-64.62 -53.54,-117.19 -118.16,-117.19 -64.62,0 -118.17,52.57 -118.17,117.19 0,12.61 2.52,25.51 6.23,36.9 -21.83,-25.59 -35.52,-59.3 -35.52,-95.5l0 -2.69c17.01,-6.07 29.29,-22.18 29.29,-41.25l0 -24.94c34.52,-16.52 58.6,-51.5 58.6,-92.25l0 -58.59c0,-8.1 -6.56,-14.65 -14.65,-14.65l-175.78 0c-8.1,0 -14.65,6.55 -14.65,14.65l0 58.59c0,40.75 24.08,75.73 58.59,92.25l0 24.94c0,19.07 12.29,35.18 29.3,41.25l0 2.69c0,96.93 79.83,176.76 176.76,176.76 96.93,0 176.76,-79.83 176.76,-176.76l0 -2.69c17.01,-6.07 29.29,-22.18 29.29,-41.25l0 -29.67c17.68,-13.39 29.3,-34.39 29.3,-58.22l0 -58.6c0,-8.09 -6.55,-14.65 -14.65,-14.65zm-220.7 352.54c-48.46,0 -88.87,-40.39 -88.87,-88.86 0,-48.47 40.4,-87.89 88.87,-87.89 48.46,0 88.87,39.42 88.87,87.89 0,48.45 -40.39,88.86 -88.87,88.86z"/>
   <path class="fil0" d="M470.7 44.92c0,-8.09 -6.55,-14.65 -14.65,-14.65l-58.59 0c-8.09,0 -14.65,6.56 -14.65,14.65l0 43.95 87.89 0 0 -43.95z"/>
  </g>
 </g>
</svg>
