<?xml version="1.0" encoding="UTF-8"?>
<!DOCTYPE svg PUBLIC "-//W3C//DTD SVG 1.1//EN" "http://www.w3.org/Graphics/SVG/1.1/DTD/svg11.dtd">
<!-- Creator: CorelDRAW 2018 (64-Bit) -->
<svg xmlns="http://www.w3.org/2000/svg" xml:space="preserve" width="500px" height="411px" version="1.1" style="shape-rendering:geometricPrecision; text-rendering:geometricPrecision; image-rendering:optimizeQuality; fill-rule:evenodd; clip-rule:evenodd"
viewBox="0 0 500 411"
 xmlns:xlink="http://www.w3.org/1999/xlink">
 <defs>
  <style type="text/css">
   <![CDATA[
    .fil0 {fill:#9D9E9E;fill-rule:nonzero}
   ]]>
  </style>
 </defs>
 <g id="Слой_x0020_1">
  <metadata id="CorelCorpID_0Corel-Layer"/>
  <g id="_1798225984">
   <path class="fil0" d="M38.22 303.71l15.35 0 0 -220.71 -53.57 13.4 0 243.03c0,4.93 4,8.93 8.93,8.93l17.58 0 -5.62 -22.46c-1.33,-5.33 -0.13,-10.99 3.26,-15.32 3.38,-4.34 8.57,-6.87 14.07,-6.87z"/>
   <path class="fil0" d="M38.22 321.57l20.63 82.52c0.99,3.98 4.56,6.77 8.67,6.77l364.96 0c4.11,0 7.68,-2.79 8.68,-6.77l20.62 -82.52 -423.56 0zm113.57 44.64l-35.72 0 0 -17.85 35.72 0 0 17.85zm151.78 17.86l-17.85 0 0 -35.71 17.85 0 0 35.71zm35.72 0l-17.86 0 0 -35.71 17.86 0 0 35.71zm35.71 0l-17.86 0 0 -35.71 17.86 0 0 35.71zm35.72 0l-17.86 0 0 -35.71 17.86 0 0 35.71z"/>
   <path class="fil0" d="M473.49 348.36l17.58 0c4.93,0 8.93,-4 8.93,-8.93l0 -243.03 -53.57 -13.4 0 220.71 15.35 0c5.5,0 10.69,2.53 14.08,6.87 3.38,4.33 4.58,9.99 3.25,15.32l-5.62 22.46z"/>
   <polygon class="fil0" points="124.56,0.14 107.65,303.71 160.21,303.71 143.3,0.14 "/>
   <polygon class="fil0" points="356.72,0.14 339.8,303.71 392.35,303.71 375.44,0.19 "/>
  </g>
 </g>
</svg>
