<svg width="16" height="16" viewBox="0 0 16 16" fill="none" xmlns="http://www.w3.org/2000/svg">
<path d="M12.2274 3.73C12.2274 3.72763 12.2281 3.72177 12.231 3.7149C12.2337 3.70869 12.2372 3.70374 12.241 3.69996C12.2447 3.6962 12.2495 3.69285 12.2554 3.69036C12.2619 3.68762 12.2678 3.68682 12.2708 3.68682C12.2733 3.68682 12.2792 3.68753 12.2862 3.69046C12.2924 3.69311 12.2974 3.69666 12.3012 3.70045C12.3049 3.70421 12.3083 3.70897 12.3107 3.71482C12.3134 3.72128 12.3142 3.72707 12.3142 3.73C12.3142 3.75368 12.295 3.77318 12.2708 3.77318C12.2466 3.77318 12.2274 3.75368 12.2274 3.73Z" fill="white" stroke="black" stroke-width="2"/>
</svg>
