<svg width="16" height="10" viewBox="0 0 16 10" fill="none" xmlns="http://www.w3.org/2000/svg">
<path d="M15.6354 0.678125C15.7453 0.2875 15.6354 0 15.1066 0H13.3572C12.9116 0 12.7067 0.246875 12.5968 0.521875C12.5968 0.521875 11.7057 2.80625 10.4463 4.2875C10.0394 4.71562 9.85229 4.85313 9.62952 4.85313C9.51962 4.85313 9.35032 4.71562 9.35032 4.325V0.678125C9.35032 0.209375 9.22557 0 8.85726 0H6.10682C5.82761 0 5.66128 0.21875 5.66128 0.421875C5.66128 0.865625 6.29097 0.96875 6.35632 2.21875V4.93125C6.35632 5.525 6.25533 5.63437 6.03256 5.63437C5.43851 5.63437 3.99497 3.34063 3.13955 0.715625C2.96727 0.20625 2.79797 0 2.34946 0H0.599989C0.100988 0 0 0.246875 0 0.521875C0 1.00937 0.594048 3.43125 2.76529 6.63125C4.2118 8.81563 6.24939 10 8.10282 10C9.21666 10 9.35329 9.7375 9.35329 9.28438C9.35329 7.19688 9.2523 7 9.81071 7C10.0691 7 10.5147 7.1375 11.5542 8.19063C12.7423 9.44063 12.9384 10 13.6037 10H15.3532C15.8522 10 16.1047 9.7375 15.9591 9.21875C15.6264 8.12813 13.378 5.88438 13.277 5.73438C13.0186 5.38438 13.0928 5.22813 13.277 4.91563C13.2799 4.9125 15.4156 1.75 15.6354 0.678125Z" fill="black"/>
</svg>
