<?xml version="1.0" standalone="no"?>
<!DOCTYPE svg PUBLIC "-//W3C//DTD SVG 20010904//EN"
 "http://www.w3.org/TR/2001/REC-SVG-20010904/DTD/svg10.dtd">
<svg version="1.0" xmlns="http://www.w3.org/2000/svg"
 width="234.000000pt" height="234.000000pt" viewBox="0 0 234.000000 234.000000"
 preserveAspectRatio="xMidYMid meet">
<metadata>
Created by potrace 1.11, written by Peter Selinger 2001-2013
</metadata>
<g transform="translate(0.000000,234.000000) scale(0.100000,-0.100000)"
fill="#000000" stroke="none">
<path d="M1317 1782 c-38 -42 -8 -102 50 -102 55 0 85 67 45 103 -25 22 -75
21 -95 -1z"/>
<path d="M211 1573 c-41 -109 -85 -226 -98 -261 l-23 -63 67 3 66 3 17 50 17
50 84 3 85 3 18 -56 17 -55 65 0 c35 0 64 3 64 8 0 4 -43 120 -95 257 l-94
250 -58 3 -58 3 -74 -198z m179 -115 c0 -4 -22 -8 -49 -8 l-50 0 26 77 26 77
24 -69 c12 -38 23 -73 23 -77z"/>
<path d="M1050 1685 c0 -41 -2 -45 -24 -45 -26 0 -35 -18 -28 -57 3 -16 11
-23 28 -23 24 0 24 0 24 -122 0 -153 13 -183 84 -193 24 -4 58 -4 75 0 28 6
31 10 31 45 0 36 -2 39 -32 42 l-33 3 -3 113 -3 112 33 0 c33 0 33 1 30 40 -4
37 -7 40 -33 40 -28 0 -29 2 -29 45 l0 45 -60 0 -60 0 0 -45z"/>
<path d="M724 1631 c-72 -33 -106 -108 -97 -213 11 -127 94 -192 220 -173 61
9 123 66 123 114 0 31 0 31 -55 31 -39 0 -55 -4 -55 -13 0 -8 -9 -22 -20 -32
-52 -47 -110 33 -95 131 12 84 75 111 105 47 14 -31 18 -33 71 -33 l56 0 -7
41 c-18 99 -140 148 -246 100z"/>
<path d="M1986 1640 c-37 -12 -85 -56 -102 -97 -18 -41 -18 -154 0 -196 39
-95 191 -137 288 -80 53 31 57 48 21 84 l-31 32 -32 -26 c-43 -37 -81 -35
-114 4 -14 17 -26 35 -26 40 0 5 53 9 120 9 l120 0 0 43 c0 58 -16 111 -45
145 -38 45 -126 63 -199 42z m108 -102 c28 -40 21 -48 -44 -48 -33 0 -60 4
-60 9 0 4 9 20 21 35 25 32 62 34 83 4z"/>
<path d="M1310 1455 c0 -102 -1 -188 -2 -192 -2 -5 23 -9 55 -11 l57 -3 0 186
c0 102 0 188 0 193 0 4 -25 8 -55 10 l-55 3 0 -186z"/>
<path d="M1480 1628 c0 -7 28 -95 62 -195 l63 -183 58 0 c31 0 57 2 57 4 0 4
115 341 125 369 6 15 0 17 -58 17 l-64 0 -28 -105 c-15 -57 -31 -102 -35 -100
-4 3 -13 26 -19 52 -7 27 -19 72 -27 101 l-15 52 -60 0 c-40 0 -59 -4 -59 -12z"/>
<path d="M1020 911 l0 -261 121 0 c150 0 200 12 239 57 26 29 30 41 30 94 0
54 -3 64 -31 92 -18 18 -27 33 -20 35 37 12 53 119 26 171 -25 50 -74 65 -227
69 l-138 4 0 -261z m238 153 c14 -10 22 -26 22 -44 0 -39 -32 -60 -92 -60
l-48 0 0 60 0 60 48 0 c27 0 57 -7 70 -16z m10 -210 c15 -10 22 -25 22 -49 0
-46 -29 -65 -97 -65 l-53 0 0 65 0 65 53 0 c31 0 61 -6 75 -16z"/>
<path d="M1587 1036 c-78 -28 -108 -82 -108 -193 0 -117 46 -182 142 -198 95
-16 184 25 215 102 17 39 18 150 3 190 -34 92 -147 136 -252 99z m114 -95 c19
-15 24 -30 26 -82 4 -74 -10 -109 -49 -123 -74 -26 -116 123 -56 199 23 30 47
32 79 6z"/>
<path d="M1911 983 c18 -32 43 -75 56 -96 l23 -37 -55 -94 c-30 -52 -55 -97
-55 -100 0 -3 28 -6 63 -6 l62 0 28 50 c16 28 30 50 32 50 2 0 16 -22 31 -50
l27 -50 64 0 c34 0 63 2 63 4 0 3 -25 47 -55 100 l-55 95 46 78 c74 125 74
113 0 113 l-65 0 -27 -45 c-14 -25 -28 -45 -30 -45 -2 0 -15 20 -30 45 l-26
45 -65 0 -64 0 32 -57z"/>
</g>
</svg>
