<svg width="65" height="67" viewBox="0 0 65 67" fill="none" xmlns="http://www.w3.org/2000/svg">
<path d="M64.0433 52.7378L59.08 24.6442C58.0527 18.8295 53.0212 14.6091 47.1166 14.6091H40.0949C41.1566 13.1001 41.7825 11.2635 41.7825 9.28225C41.7826 4.16408 37.6183 0 32.5001 0C27.382 0 23.2178 4.16408 23.2178 9.28238C23.2178 11.2636 23.8437 13.1002 24.9053 14.6093H17.8837C11.979 14.6093 6.94762 18.8296 5.92024 24.6444L0.957009 52.7378C0.330585 56.2839 1.29868 59.8998 3.6128 62.6587C5.92705 65.4178 9.31944 67 12.9206 67H52.08C55.6811 67 59.0735 65.4176 61.3876 62.6589C63.7018 59.9 64.6695 56.2839 64.0433 52.7378ZM32.5001 3.95549C35.4374 3.95549 37.827 6.34511 37.827 9.28238C37.827 12.2196 35.4373 14.6093 32.5001 14.6093C29.563 14.6093 27.1732 12.2196 27.1732 9.28238C27.1732 6.34511 29.5629 3.95549 32.5001 3.95549ZM58.357 60.1168C56.7963 61.9775 54.5085 63.0445 52.08 63.0445H12.9206C10.4921 63.0445 8.20413 61.9775 6.6435 60.1168C5.08287 58.2561 4.42988 55.8174 4.85243 53.426L9.81566 25.3325C10.5086 21.4111 13.9017 18.5646 17.8838 18.5646H47.1169C51.099 18.5646 54.4922 21.4108 55.185 25.3323L60.1482 53.4258C60.5706 55.8174 59.9175 58.2561 58.357 60.1168Z" fill="#0B8DDD"/>
<path d="M25.9966 40.8044L30.9526 35.6832C31.7123 34.8985 31.6916 33.6464 30.9067 32.8868C30.1217 32.1269 28.8696 32.1478 28.11 32.9326L22.5674 38.6599V34.3079C22.5674 33.2156 21.6819 32.3301 20.5896 32.3301C19.4973 32.3301 18.6118 33.2156 18.6118 34.3079V47.301C18.6118 48.3933 19.4973 49.2789 20.5896 49.2789C21.6819 49.2789 22.5674 48.3933 22.5674 47.301V42.9491L28.11 48.6764C28.4978 49.0773 29.0143 49.2789 29.5315 49.2789C30.0267 49.2789 30.5226 49.094 30.9067 48.7223C31.6916 47.9627 31.712 46.7107 30.9526 45.9257L25.9966 40.8044Z" fill="#0B8DDD"/>
<path d="M44.4108 39.3857H41.4419C40.3496 39.3857 39.4641 40.2712 39.4641 41.3635C39.4641 42.4558 40.3496 43.3413 41.4419 43.3413H42.4005C42.212 44.4648 41.2328 45.3236 40.0565 45.3236C38.7461 45.3236 37.68 44.2575 37.68 42.9471V38.6625C37.68 37.352 38.7461 36.2859 40.0565 36.2859C40.7938 36.2859 41.4772 36.6199 41.932 37.2025C42.6039 38.0633 43.8468 38.2166 44.7079 37.5445C45.5688 36.8723 45.7221 35.6295 45.0501 34.7686C43.8407 33.2192 42.0206 32.3306 40.0566 32.3306C36.5652 32.3306 33.7246 35.1711 33.7246 38.6626V42.9472C33.7246 46.4386 36.5652 49.2792 40.0566 49.2792C43.5481 49.2792 46.3887 46.4386 46.3887 42.9472V41.3638C46.3887 40.2712 45.5031 39.3857 44.4108 39.3857Z" fill="#0B8DDD"/>
</svg>
