<svg width="64" height="64" viewBox="0 0 64 64" fill="none" xmlns="http://www.w3.org/2000/svg">
<path fill-rule="evenodd" clip-rule="evenodd" d="M57.8835 7.22773C54.229 4.20025 49.4075 2.96421 44.7425 3.85973L26.3653 7.92584C23.4115 7.95364 20.5251 8.80623 18.0323 10.3872V6.86051H21.2144C21.8003 6.86051 22.2752 6.38672 22.2752 5.80229V1.56981C22.2752 0.985508 21.8003 0.511719 21.2144 0.511719H12.7287C12.1429 0.511719 11.6679 0.985508 11.6679 1.56981V18.1393C10.9703 19.9419 10.6104 21.8576 10.6073 23.7905V26.9649H1.06075C0.474936 26.9649 0 27.4387 0 28.0231V39.6624C0 40.2468 0.474936 40.7206 1.06075 40.7206H10.0204L6.84499 47.6894C4.79655 52.1843 4.77325 56.547 6.78229 59.6611C8.59195 62.4577 11.8312 63.9994 15.9108 63.9994C22.0918 63.9994 29.0725 60.3848 33.9431 55.1789V62.9413C33.9431 63.5256 34.4181 63.9994 35.0038 63.9994H49.854C50.4398 63.9994 50.9147 63.5256 50.9147 62.9413V37.4511L62.9328 33.2542C63.3585 33.106 63.6434 32.7056 63.6434 32.2556V19.4522C63.6512 14.7236 61.5385 10.2394 57.8835 7.22773ZM13.7894 2.62789H20.1538V4.7442H16.9716C16.3858 4.7442 15.9108 5.21799 15.9108 5.80229V11.9936C15.1292 12.6936 14.4187 13.4686 13.7894 14.3077V2.62789ZM12.7287 23.7905C12.7235 16.1975 18.89 10.0379 26.5014 10.0327C32.8943 10.0286 38.4507 14.4105 39.9227 20.6161H36.93C37.0559 20.2771 37.1217 19.9192 37.1253 19.558V18.4999C37.1253 16.7469 35.7005 15.3254 33.9431 15.3254C31.8088 15.3271 29.8173 16.396 28.6395 18.1718C27.4617 16.396 25.4703 15.3271 23.3359 15.3254C21.5786 15.3254 20.1538 16.7469 20.1538 18.4999V19.029C20.1569 19.5791 20.2842 20.1217 20.5261 20.6161H15.9108C15.3251 20.6161 14.8501 21.0899 14.8501 21.6743V26.9649H12.7287V23.7905ZM29.7003 24.8487V22.7324H40.2537C40.2811 23.0828 40.3075 23.4329 40.3075 23.7905V24.8487H29.7003ZM40.3075 26.9649V38.6043H29.7003V26.9649H40.3075ZM29.8509 20.6161C30.3332 18.753 32.0144 17.4489 33.9431 17.4417C34.529 17.4417 35.0038 17.9155 35.0038 18.4999V19.558C35.0038 20.1423 34.529 20.6161 33.9431 20.6161H29.8509ZM16.9716 24.8487V22.7324H27.5788V24.8487H16.9716ZM27.5788 26.9649V38.6043H16.9716V26.9649H27.5788ZM22.2752 19.029V18.4999C22.2752 17.9155 22.7501 17.4417 23.3359 17.4417C25.2647 17.4489 26.9459 18.753 27.4281 20.6161H23.8663C22.9873 20.6161 22.2752 19.9058 22.2752 19.029ZM2.12144 38.6043V29.0812H14.8501V38.6043H2.12144ZM15.9108 61.8832C12.577 61.8832 9.97069 60.6855 8.56555 58.512C6.95633 56.0179 7.0325 52.3915 8.77741 48.5657L12.3511 40.7206H39.7176L36.5421 47.6894C32.9788 55.5152 23.7218 61.8832 15.9108 61.8832ZM43.4897 61.8832H36.0646V52.6235C37.0042 51.3556 37.8121 49.9963 38.4756 48.5657L42.1456 40.5124L43.4897 40.0432V61.8832ZM48.7933 61.8832H45.6111V39.3028L48.7933 38.1915V61.8832ZM61.522 31.5043L42.429 38.1703V23.7905C42.4175 17.1002 38.2047 11.1344 31.8937 8.87076L45.1688 5.93246C52.6518 4.51995 59.8656 9.42629 61.2816 16.891C61.4417 17.7353 61.5224 18.5929 61.522 19.4522V31.5043ZM14.8501 42.8368C14.4482 42.8368 14.0804 43.0632 13.9007 43.4222L10.7186 49.7711L12.6174 50.7165L15.5058 44.9531H30.761V42.8368H14.8501ZM12.7287 31.1975H4.24288V33.3136H12.7287V31.1975Z" fill="#0B8DDD"/>
</svg>
