<svg width="65" height="67" viewBox="0 0 65 67" fill="none" xmlns="http://www.w3.org/2000/svg">
<path d="M64.0433 52.7378L59.08 24.6442C58.0527 18.8295 53.0212 14.6091 47.1166 14.6091H40.0949C41.1566 13.1001 41.7825 11.2635 41.7825 9.28225C41.7826 4.16408 37.6183 0 32.5001 0C27.382 0 23.2178 4.16408 23.2178 9.28238C23.2178 11.2636 23.8437 13.1002 24.9053 14.6093H17.8837C11.979 14.6093 6.94762 18.8296 5.92024 24.6444L0.957009 52.7378C0.330585 56.2839 1.29868 59.8998 3.6128 62.6587C5.92705 65.4178 9.31944 67 12.9206 67H52.08C55.6811 67 59.0735 65.4176 61.3876 62.6589C63.7018 59.9 64.6695 56.2839 64.0433 52.7378ZM32.5001 3.95549C35.4374 3.95549 37.827 6.34511 37.827 9.28238C37.827 12.2196 35.4373 14.6093 32.5001 14.6093C29.563 14.6093 27.1732 12.2196 27.1732 9.28238C27.1732 6.34511 29.5629 3.95549 32.5001 3.95549ZM58.357 60.1168C56.7963 61.9775 54.5085 63.0445 52.08 63.0445H12.9206C10.4921 63.0445 8.20413 61.9775 6.6435 60.1168C5.08287 58.2561 4.42988 55.8174 4.85243 53.426L9.81566 25.3325C10.5086 21.4111 13.9017 18.5646 17.8838 18.5646H47.1169C51.099 18.5646 54.4922 21.4108 55.185 25.3323L60.1482 53.4258C60.5706 55.8174 59.9175 58.2561 58.357 60.1168Z" fill="#0B8DDD"/>
</svg>
